#!OML:ASF F:\VICON\USERDATA\INSTALL\rory3\rory3.ASF
:FULLY-SPECIFIED
:DEGREES
99
root 1.4592813870894865 17.868518266199068 55.99719718320387 -3.9068270316030893 1.9073857316315663 0.9258364861382113
lfemur 0.32633486639718257 -4.298033405150643 -25.923279915795025
ltibia 24.692117187002154
lfoot -8.783577002540584 -3.048369953191815
ltoes -12.419660017197728
rfemur -22.158167245067517 -2.089346528461018 21.457173477501406
rtibia 54.85530542177828
rfoot -8.566450491648464 -7.395374504343522
rtoes 4.094343076134644
lowerback 10.285668291555677 -1.433055375667902 -2.867870703952347
upperback -0.19332014704669592 -2.168588026776429 1.0894808878782614
thorax -6.016073706311528 -1.0360360756086946 2.9474408996262014
lowerneck -16.913820245323734 -3.629089372246079 -1.6391693678777868
upperneck 21.244848680120715 -5.049284008565352 2.2040076192867057
head 9.69166109361075 -2.2453437005247414 0.388425246822088
lclavicle -2.545090050465936e-15 -2.7514076469939796e-15
lhumerus -27.94812325792741 0.08671434822757229 81.26268024679271
lradius 27.948062428409646
lwrist 7.832731570039938
lhand -29.465081631871037 18.992127592778516
lfingers nan
lthumb -2.4315660747616437 49.50673125854108
rclavicle -2.6368261797389172e-15 -2.7996235772878127e-15
rhumerus -31.787995703243908 -20.20767607671323 -77.35876352041524
rradius 32.49967775787346
rwrist 0.5526547765479228
rhand -17.591535067956134 22.196402675025347
rfingers nan
rthumb 8.620153412302406 -7.645007371352918
100
root 1.47956457675022 17.874050895589992 56.71810732378434 -3.6839667890683074 1.4257141765595391 0.054645113187699934
lfemur 2.5260964662842476 -4.152297242280582 -25.096145685417696
ltibia 24.514730800090557
lfoot -8.333880749501075 -4.24359367859007
ltoes -12.527444620706778
rfemur -23.99526765918774 -1.5106650505901067 22.594541674055243
rtibia 53.38808454103601
rfoot -9.18265503049358 -7.042483565287712
rtoes 2.766046123547725
lowerback 10.230337281456125 -1.6177743449806903 -2.373769133981927
upperback -0.25877444689257306 -2.361142774975251 1.3494418876114194
thorax -6.033081784800071 -1.148790578657519 3.1945711539579253
lowerneck -16.953030793072045 -3.5503520697345663 -1.6908705929695984
upperneck 21.357135103425637 -4.893488438142778 2.075705300765871
head 9.729978811790977 -2.1912892784222624 0.3794842852425123
lclavicle -2.549952443279399e-15 -2.7528667313736864e-15
lhumerus -27.752460424504648 -0.0021973590011765687 81.2155753902262
lradius 27.66181204143774
lwrist 7.795812702589815
lhand -29.494003672257783 18.9061259932985
lfingers nan
lthumb -2.370648114554805 49.62529623522032
rclavicle -2.6416419709993654e-15 -2.7991764608651983e-15
rhumerus -31.936239281458544 -20.57331242670724 -77.36405045979535
rradius 32.480122966524945
rwrist 0.6491926565060249
rhand -17.58164411421182 22.250840370085637
rfingers nan
rthumb 8.639237477287764 -7.551071175189065
101
root 1.4986807305028138 17.88945580924069 57.84620236018551 -3.4082589154482306 1.1059916575954694 -0.6438539904061926
lfemur 4.468799431939088 -3.991826047896318 -24.366227244399344
ltibia 24.509490971896703
lfoot -7.862281060493867 -4.800787121003991
ltoes -12.518971512611598
rfemur -25.101571869337143 -0.9150989076793201 23.491390535739377
rtibia 50.86473325797432
rfoot -9.692548965081379 -6.82136863540554
rtoes 1.5760862523141752
lowerback 10.154428290115948 -1.7998376216534229 -1.9763821027737178
upperback -0.3399609045236594 -2.555315317612109 1.6049599295848989
thorax -6.04587691078756 -1.2435887449719467 3.453432810217593
lowerneck -16.95434150007617 -3.4724941538745955 -1.7403000391759318
upperneck 21.512545258350183 -4.737225810198908 1.9256074048048302
head 9.7767739874856 -2.1384706028070495 0.3635784880030612
lclavicle -2.5540034642354134e-15 -2.754254914538947e-15
lhumerus -27.640209238527007 -0.055107737788538724 81.19875979696053
lradius 27.27010464900175
lwrist 7.968790618923299
lhand -29.38846701705286 19.129085259342567
lfingers nan
lthumb -2.313277025118791 49.71202884405198
rclavicle -2.645335345407403e-15 -2.7990599206251358e-15
rhumerus -31.967168874727463 -20.872864625402702 -77.29293330360574
rradius 32.519682805493616
rwrist 1.0897741563319316
rhand -17.57740272010959 22.35737255787947
rfingers nan
rthumb 8.659755302095585 -7.382351603774726
102
root 1.508261080343521 17.895694647645993 57.41698776649797 -3.340280222601434 0.6640834419550944 -0.7836420582670844
lfemur 6.319999829849682 -3.813116928844344 -24.0815190252614
ltibia 24.646768677035492
lfoot -6.8392029456967265 -4.954031115351932
ltoes -12.51106483771122
rfemur -25.086649791601495 -0.48333352337936386 23.868869170845958
rtibia 47.27665074818144
rfoot -10.100205800172999 -6.6813467284780135
rtoes 0.5944524647793694
lowerback 10.112909858894934 -1.9062878842031454 -1.9676400406810106
upperback -0.3877071373393882 -2.6939313442093122 1.7733480643885289
thorax -6.0190580957362485 -1.3048283151098554 3.7081941879619205
lowerneck -16.93551516803347 -3.406482353989653 -1.7923657620648235
upperneck 21.677639540443305 -4.6013885944297135 1.7716381457115153
head 9.823945259505154 -2.0941305142742253 0.34082558061754525
lclavicle -2.5576214132046323e-15 -2.755482613804244e-15
lhumerus -27.617289969823215 -0.08455884829650895 81.22414030265895
lradius 26.815186288064975
lwrist 8.244381654915172
lhand -29.44814871509278 18.893921687001267
lfingers nan
lthumb -2.279071549199587 49.67508579642908
rclavicle -2.648710835544491e-15 -2.7988321824069935e-15
rhumerus -32.00043825210159 -21.153527725126512 -77.18513800742288
rradius 32.60541336920567
rwrist 1.7606810313229566
rhand -17.57478635926301 22.480743087665278
rfingers nan
rthumb 8.69026626759608 -7.173182767546661
